<svg width="43" height="47" viewBox="0 0 43 47" fill="none" xmlns="http://www.w3.org/2000/svg">
<path d="M16.9042 22.2102C17.777 19.0411 20.6689 16.7143 24.1019 16.7143C26.465 16.7143 28.5718 17.8168 29.94 19.5377C29.94 19.5377 31.6792 21.4979 33.3193 20.0476C35.0694 18.5 33.4978 16.6877 33.4978 16.6877C31.3202 13.806 27.9211 11.9524 24.1019 11.9524C20.3842 11.9524 17.0647 13.7087 14.8823 16.46C14.8823 16.46 13.3677 18.7381 11.5009 17.4286C9.43051 15.9763 11.3842 13.4856 11.3842 13.4856C14.3785 9.64624 18.9631 7.19048 24.1019 7.19048C28.1699 7.19048 31.8907 8.72948 34.7501 11.2756M16.9042 22.2102C16.8162 22.1972 16.7262 22.1905 16.6346 22.1905C15.6036 22.1905 14.7678 23.0433 14.7678 24.0952C14.7678 25.1472 15.6036 26 16.6346 26C16.7056 26 16.7757 25.996 16.8447 25.9881M16.9042 22.2102C17.8075 22.3435 18.5014 23.1367 18.5014 24.0952C18.5014 25.0747 17.7768 25.8816 16.8447 25.9881M16.8447 25.9881C17.638 29.2741 20.5862 31.7143 24.1019 31.7143C26.465 31.7143 28.5718 30.6118 29.94 28.8909C29.94 28.8909 31.6792 26.9307 33.3193 28.381C35.0694 29.9286 33.4978 31.7408 33.4978 31.7408C33.4353 31.8235 33.3718 31.9053 33.3074 31.9863M3.1876 22.2185C3.57466 17.8103 5.22801 13.713 7.76722 10.4757C10.7297 6.69875 14.8981 3.96984 19.6682 2.91228M3.1876 22.2185C3.08338 22.2001 2.9762 22.1905 2.86682 22.1905C1.8358 22.1905 1 23.0433 1 24.0952C1 25.1472 1.8358 26 2.86682 26C2.96942 26 3.0701 25.9916 3.1682 25.9753M3.1876 22.2185C4.06576 22.3737 4.73364 23.1549 4.73364 24.0952C4.73364 25.0425 4.05591 25.8283 3.1682 25.9753M3.1682 25.9753C3.51631 30.4727 5.18299 34.6582 7.76722 37.9528C11.6174 42.8615 17.5044 46 24.1019 46C29.335 46 34.1211 44.0254 37.7983 40.7589M14.236 37.8076C14.565 37.4642 14.7678 36.9943 14.7678 36.4762C14.7678 35.4242 13.932 34.5714 12.901 34.5714C12.3717 34.5714 11.8938 34.7962 11.5541 35.1572M14.236 37.8076C13.8971 38.1614 13.4242 38.381 12.901 38.381C11.87 38.381 11.0342 37.5282 11.0342 36.4762C11.0342 35.9643 11.2321 35.4995 11.5541 35.1572M14.236 37.8076C16.9771 39.9605 20.3953 41.2381 24.1019 41.2381C29.3892 41.2381 34.0898 38.6383 37.0752 34.6066C37.0752 34.6066 38.8031 32.5413 40.5532 33.8571C42.3034 35.173 40.7468 37.5476 40.7468 37.5476C40.6285 37.7059 40.5082 37.8624 40.3859 38.0172M11.5541 35.1572C11.4969 35.0863 11.4403 35.0149 11.3842 34.9429C11.3842 34.9429 9.43051 32.4523 11.5009 31C13.3677 29.6905 14.8823 31.9686 14.8823 31.9686C17.0647 34.7199 20.3842 36.4762 24.1019 36.4762C26.4757 36.4762 28.6872 35.7601 30.544 34.5261M33.3074 31.9863C32.974 31.6698 32.5271 31.4762 32.0359 31.4762C31.0048 31.4762 30.169 32.329 30.169 33.381C30.169 33.8108 30.3086 34.2074 30.544 34.5261M33.3074 31.9863C33.6736 32.3341 33.9027 32.8302 33.9027 33.381C33.9027 34.4329 33.0669 35.2857 32.0359 35.2857C31.4261 35.2857 30.8847 34.9875 30.544 34.5261M40.3859 38.0172C40.046 37.6545 39.5671 37.4286 39.0364 37.4286C38.0054 37.4286 37.1696 38.2814 37.1696 39.3333C37.1696 39.9006 37.4127 40.41 37.7983 40.7589M40.3859 38.0172C40.7064 38.3592 40.9033 38.8228 40.9033 39.3333C40.9033 40.3853 40.0675 41.2381 39.0364 41.2381C38.5614 41.2381 38.1278 41.0571 37.7983 40.7589M23.3464 2.44233C23.5972 2.43318 23.849 2.42857 24.1019 2.42857C30.8792 2.42857 36.9067 5.74041 40.7468 10.881C40.7468 10.881 42.3034 13.2556 40.5532 14.5714C39.147 15.6287 37.7552 14.5031 37.2625 14.0199M23.3464 2.44233C23.1439 1.61382 22.4097 1 21.535 1C20.504 1 19.6682 1.85279 19.6682 2.90476C19.6682 2.90727 19.6682 2.90978 19.6682 2.91228M23.3464 2.44233C23.3826 2.59038 23.4018 2.74528 23.4018 2.90476C23.4018 3.95673 22.566 4.80952 21.535 4.80952C20.5064 4.80952 19.6722 3.96079 19.6682 2.91228M37.2625 14.0199C37.7689 13.6793 38.103 13.0937 38.103 12.4286C38.103 11.3766 37.2672 10.5238 36.2362 10.5238C35.6299 10.5238 35.0911 10.8187 34.7501 11.2756M37.2625 14.0199C36.968 14.218 36.6153 14.3333 36.2362 14.3333C35.2052 14.3333 34.3694 13.4805 34.3694 12.4286C34.3694 11.9952 34.5112 11.5957 34.7501 11.2756" stroke="#171717" stroke-width="2"/>
</svg>
