<svg width="313" height="337" viewBox="0 0 313 337" fill="none" xmlns="http://www.w3.org/2000/svg">
<path d="M123.902 159.013C130.537 135.702 152.521 118.587 178.618 118.587C196.583 118.587 212.598 126.697 222.999 139.355C222.999 139.355 236.221 153.773 248.688 143.106C261.993 131.722 250.045 118.392 250.045 118.392C233.491 97.1953 207.652 83.5608 178.618 83.5608C150.357 83.5608 125.122 96.4797 108.532 116.717C108.532 116.717 97.0179 133.474 82.8265 123.841C67.0879 113.159 81.9395 94.8387 81.9395 94.8387C104.702 66.5979 139.554 48.5344 178.618 48.5344C209.543 48.5344 237.828 59.8546 259.565 78.5827M123.902 159.013C123.233 158.917 122.549 158.868 121.853 158.868C114.015 158.868 107.661 165.14 107.661 172.878C107.661 180.616 114.015 186.889 121.853 186.889C122.393 186.889 122.926 186.859 123.45 186.801M123.902 159.013C130.769 159.993 136.044 165.828 136.044 172.878C136.044 180.083 130.536 186.018 123.45 186.801M123.45 186.801C129.481 210.972 151.893 228.921 178.618 228.921C196.583 228.921 212.598 220.811 222.999 208.153C222.999 208.153 236.221 193.734 248.688 204.402C261.993 215.786 250.045 229.116 250.045 229.116C249.57 229.724 249.088 230.326 248.598 230.921M19.6299 159.074C22.5723 126.649 35.1409 96.5113 54.4438 72.6993C76.9646 44.9175 108.652 24.8448 144.914 17.0659M19.6299 159.074C18.8376 158.938 18.0229 158.868 17.1914 158.868C9.3537 158.868 3 165.14 3 172.878C3 180.616 9.3537 186.889 17.1914 186.889C17.9714 186.889 18.7367 186.827 19.4825 186.707M19.6299 159.074C26.3056 160.215 31.3828 165.961 31.3828 172.878C31.3828 179.846 26.2308 185.626 19.4825 186.707M19.4825 186.707C22.1287 219.788 34.7987 250.574 54.4438 274.809C83.7127 310.915 128.465 334 178.618 334C218.4 334 254.784 319.476 282.737 295.449M103.619 273.74C106.12 271.214 107.661 267.758 107.661 263.947C107.661 256.209 101.308 249.937 93.47 249.937C89.4465 249.937 85.814 251.59 83.2314 254.245M103.619 273.74C101.042 276.342 97.4473 277.958 93.47 277.958C85.6324 277.958 79.2787 271.685 79.2787 263.947C79.2787 260.182 80.7833 256.763 83.2314 254.245M103.619 273.74C124.457 289.576 150.442 298.974 178.618 298.974C218.812 298.974 254.546 279.851 277.241 250.195C277.241 250.195 290.375 235.004 303.68 244.683C316.984 254.361 305.151 271.828 305.151 271.828C304.252 272.992 303.338 274.144 302.408 275.282M83.2314 254.245C82.7966 253.724 82.3659 253.198 81.9395 252.669C81.9395 252.669 67.0879 234.349 82.8265 223.667C97.0179 214.034 108.532 230.791 108.532 230.791C125.122 251.028 150.357 263.947 178.618 263.947C196.664 263.947 213.476 258.68 227.591 249.603M248.598 230.921C246.064 228.593 242.666 227.169 238.932 227.169C231.094 227.169 224.74 233.442 224.74 241.18C224.74 244.342 225.801 247.259 227.591 249.603M248.598 230.921C251.382 233.48 253.123 237.129 253.123 241.18C253.123 248.918 246.769 255.19 238.932 255.19C234.297 255.19 230.181 252.997 227.591 249.603M302.408 275.282C299.824 272.614 296.183 270.952 292.149 270.952C284.312 270.952 277.958 277.225 277.958 284.963C277.958 289.136 279.806 292.882 282.737 295.449M302.408 275.282C304.844 277.797 306.341 281.208 306.341 284.963C306.341 292.701 299.987 298.974 292.149 298.974C288.538 298.974 285.242 297.642 282.737 295.449M172.875 13.6091C174.781 13.5419 176.696 13.5079 178.618 13.5079C230.139 13.5079 275.959 37.8684 305.151 75.6799C305.151 75.6799 316.984 93.1466 303.68 102.825C292.99 110.602 282.409 102.323 278.664 98.7689M172.875 13.6091C171.336 7.51499 165.755 3 159.105 3C151.267 3 144.914 9.27275 144.914 17.0106C144.914 17.029 144.914 17.0475 144.914 17.0659M172.875 13.6091C173.151 14.6981 173.297 15.8375 173.297 17.0106C173.297 24.7484 166.943 31.0212 159.105 31.0212C151.286 31.0212 144.944 24.7783 144.914 17.0659M278.664 98.7689C282.513 96.2632 285.054 91.9562 285.054 87.0635C285.054 79.3257 278.7 73.0529 270.862 73.0529C266.253 73.0529 262.158 75.222 259.565 78.5827M278.664 98.7689C276.425 100.226 273.744 101.074 270.862 101.074C263.025 101.074 256.671 94.8013 256.671 87.0635C256.671 83.8759 257.749 80.9369 259.565 78.5827" stroke="url(#paint0_linear_1_4)" stroke-width="6"/>
<defs>
<linearGradient id="paint0_linear_1_4" x1="157.331" y1="13.5079" x2="156.521" y2="334" gradientUnits="userSpaceOnUse">
<stop stop-color="#3A6CAF"/>
<stop offset="1" stop-color="#35DB63"/>
</linearGradient>
</defs>
</svg>
