<svg width="84" height="92" viewBox="0 0 84 92" fill="none" xmlns="http://www.w3.org/2000/svg">
<path d="M33.293 43.4204C35.0652 37.0822 40.9372 32.4286 47.9078 32.4286C52.7061 32.4286 56.9838 34.6336 59.762 38.0753C59.762 38.0753 63.2934 41.9958 66.6236 39.0952C70.1772 36 66.986 32.3754 66.986 32.3754C62.5644 26.612 55.6627 22.9048 47.9078 22.9048C40.3592 22.9048 33.619 26.4174 29.1877 31.92C29.1877 31.92 26.1123 36.4762 22.3217 33.8571C18.118 30.9526 22.0848 25.9713 22.0848 25.9713C28.1648 18.2925 37.4736 13.381 47.9078 13.381C56.1679 13.381 63.7228 16.459 69.5288 21.5512M33.293 43.4204C33.1143 43.3944 32.9316 43.381 32.7457 43.381C30.6522 43.381 28.9552 45.0865 28.9552 47.1905C28.9552 49.2944 30.6522 51 32.7457 51C32.8899 51 33.0322 50.9919 33.1722 50.9761M33.293 43.4204C35.1271 43.687 36.5362 45.2733 36.5362 47.1905C36.5362 49.1495 35.0649 50.7631 33.1722 50.9761M33.1722 50.9761C34.7832 57.5482 40.7694 62.4286 47.9078 62.4286C52.7061 62.4286 56.9838 60.2235 59.762 56.7818C59.762 56.7818 63.2934 52.8613 66.6236 55.7619C70.1772 58.8571 66.986 62.4817 66.986 62.4817C66.8591 62.647 66.7302 62.8107 66.5993 62.9726M5.44186 43.437C6.22779 34.6207 9.58487 26.426 14.7407 19.9515C20.756 12.3975 29.2198 6.93968 38.9053 4.82456M5.44186 43.437C5.23025 43.4001 5.01262 43.381 4.79053 43.381C2.69708 43.381 1 45.0865 1 47.1905C1 49.2944 2.69708 51 4.79053 51C4.99887 51 5.20328 50.9831 5.40248 50.9506M5.44186 43.437C7.22496 43.7473 8.58106 45.3097 8.58106 47.1905C8.58106 49.085 7.20496 50.6566 5.40248 50.9506M5.40248 50.9506C6.10931 59.9453 9.49345 68.3163 14.7407 74.9057C22.5584 84.7231 34.5118 91 47.9078 91C58.5336 91 68.2517 87.0507 75.7181 80.5179M27.8755 74.6151C28.5435 73.9283 28.9552 72.9887 28.9552 71.9524C28.9552 69.8484 27.2581 68.1429 25.1646 68.1429C24.0899 68.1429 23.1197 68.5923 22.4299 69.3145M27.8755 74.6151C27.1872 75.3227 26.227 75.7619 25.1646 75.7619C23.0712 75.7619 21.3741 74.0563 21.3741 71.9524C21.3741 70.9285 21.776 69.999 22.4299 69.3145M27.8755 74.6151C33.4412 78.921 40.3818 81.4762 47.9078 81.4762C58.6436 81.4762 68.1881 76.2766 74.2499 68.2131C74.2499 68.2131 77.7583 64.0826 81.3119 66.7143C84.8655 69.346 81.7048 74.0952 81.7048 74.0952C81.4648 74.4118 81.2205 74.7248 80.9721 75.0343M22.4299 69.3145C22.3137 69.1726 22.1987 69.0297 22.0848 68.8859C22.0848 68.8859 18.118 63.9046 22.3217 61C26.1123 58.381 29.1877 62.9371 29.1877 62.9371C33.619 68.4397 40.3592 71.9524 47.9078 71.9524C52.7278 71.9524 57.2182 70.5202 60.9884 68.0523M66.5993 62.9726C65.9225 62.3396 65.0151 61.9524 64.0176 61.9524C61.9241 61.9524 60.227 63.658 60.227 65.7619C60.227 66.6216 60.5104 67.4148 60.9884 68.0523M66.5993 62.9726C67.343 63.6681 67.8081 64.6604 67.8081 65.7619C67.8081 67.8658 66.111 69.5714 64.0176 69.5714C62.7795 69.5714 61.6801 68.9749 60.9884 68.0523M80.9721 75.0343C80.282 74.3089 79.3095 73.8571 78.2321 73.8571C76.1386 73.8571 74.4415 75.5627 74.4415 77.6667C74.4415 78.8013 74.9351 79.82 75.7181 80.5179M80.9721 75.0343C81.6229 75.7183 82.0226 76.6456 82.0226 77.6667C82.0226 79.7706 80.3255 81.4762 78.2321 81.4762C77.2676 81.4762 76.3872 81.1141 75.7181 80.5179M46.3739 3.88466C46.883 3.86637 47.3943 3.85714 47.9078 3.85714C61.6689 3.85714 73.9076 10.4808 81.7048 20.7619C81.7048 20.7619 84.8655 25.5112 81.3119 28.1429C78.4566 30.2574 75.6305 28.0063 74.6301 27.0399M46.3739 3.88466C45.9627 2.22764 44.4719 1 42.6958 1C40.6024 1 38.9053 2.70558 38.9053 4.80952C38.9053 4.81454 38.9053 4.81955 38.9053 4.82456M46.3739 3.88466C46.4474 4.18075 46.4864 4.49056 46.4864 4.80952C46.4864 6.91347 44.7893 8.61905 42.6958 8.61905C40.6074 8.61905 38.9134 6.92159 38.9053 4.82456M74.6301 27.0399C75.6583 26.3586 76.3368 25.1875 76.3368 23.8571C76.3368 21.7532 74.6397 20.0476 72.5463 20.0476C71.3152 20.0476 70.2212 20.6374 69.5288 21.5512M74.6301 27.0399C74.0322 27.4361 73.316 27.6667 72.5463 27.6667C70.4528 27.6667 68.7557 25.9611 68.7557 23.8571C68.7557 22.9904 69.0437 22.1913 69.5288 21.5512" stroke="white" stroke-width="2"/>
</svg>
